PathFileType	4	(X/Y/Z)	C:/Users/opensim2020/Desktop/walking_exp_matlab/subject06_walking19_straight_04.trc	
DataRate	CameraRate	NumFrames	NumMarkers	Units	OrigDataRate	OrigDataStartFrame	OrigNumFrames	
100.00	100.00	6	49	mm	100.00	4629	340	
Frame#	Time	LFHD			RFHD			LBHD			RBHD			C7			T10			CLAV			STRN			RBAK			LSHO			LUPA			LELB			LFRM			LWRA			LWRB			LFIN			RSHO			RUPA			RELB			RFRM			RWRA			RWRB			RFIN			LASI			RASI			LPSI			RPSI			LTHI			LKNE			LTIB			LANK			LHEE			LTOE			RTHI			RKNE			RTIB			RANK			RHEE			RTOE			*39			*40			*41			*42			*43			*44			*45			*46			*47			*48			
		X1	Y1	Z1	X2	Y2	Z2	X3	Y3	Z3	X4	Y4	Z4	X5	Y5	Z5	X6	Y6	Z6	X7	Y7	Z7	X8	Y8	Z8	X9	Y9	Z9	X10	Y10	Z10	X11	Y11	Z11	X12	Y12	Z12	X13	Y13	Z13	X14	Y14	Z14	X15	Y15	Z15	X16	Y16	Z16	X17	Y17	Z17	X18	Y18	Z18	X19	Y19	Z19	X20	Y20	Z20	X21	Y21	Z21	X22	Y22	Z22	X23	Y23	Z23	X24	Y24	Z24	X25	Y25	Z25	X26	Y26	Z26	X27	Y27	Z27	X28	Y28	Z28	X29	Y29	Z29	X30	Y30	Z30	X31	Y31	Z31	X32	Y32	Z32	X33	Y33	Z33	X34	Y34	Z34	X35	Y35	Z35	X36	Y36	Z36	X37	Y37	Z37	X38	Y38	Z38	X39	Y39	Z39	X40	Y40	Z40	X41	Y41	Z41	X42	Y42	Z42	X43	Y43	Z43	X44	Y44	Z44	X45	Y45	Z45	X46	Y46	Z46	X47	Y47	Z47	X48	Y48	Z48	X49	Y49	Z49	

86	0.850	-908.47034	673.63153	1664.25720	-1040.88110	673.47437	1658.22131	-910.80402	805.95459	1607.25916	-1040.15125	803.79089	1606.30823	-969.94037	804.83392	1453.09155	-979.73181	833.14728	1124.04590	-976.43109	695.19568	1376.44397	-975.08099	654.83728	1200.79651	-1050.44995	878.50165	1283.66125	-812.33502	740.30444	1405.09424	-739.80554	729.03668	1202.73083	-726.58118	724.18103	1090.79468	-707.22955	680.24146	946.42902	-755.55499	611.74213	840.16028	-711.69202	665.81500	827.61115	-714.91071	613.16382	753.75519	-1135.17834	744.49683	1410.31482	-1226.21033	783.44623	1213.86755	-1239.69470	774.68097	1092.07043	-1256.84985	749.17828	974.91595	-1224.21606	674.29962	844.18896	-1264.36658	728.73022	838.77478	-1265.52698	683.45825	767.24481	-881.52155	648.24854	965.25848	-1102.49854	662.52179	971.38507	-899.89227	806.68744	993.96997	-1068.24854	813.10730	993.90167	-827.61505	707.20325	650.19434	-852.65271	708.39734	487.13193	-872.01422	738.80322	231.89523	-925.26349	740.64569	63.44001	-968.93353	782.11053	51.05745	-936.03821	593.93652	35.64714	-1162.78882	671.74878	638.26874	-1144.85889	639.95544	516.15332	-1149.69202	789.54810	304.41714	-1115.46130	897.79584	150.62241	-1067.44177	941.04608	140.65416	-1134.28308	782.51440	52.03783	-966.49371	774.51129	1702.67407																											 
87	0.860	-908.00336	668.20923	1664.50781	-1040.38953	668.18372	1658.37463	-910.02563	800.71960	1607.76831	-1039.49243	798.60095	1606.70325	-969.07983	799.78918	1453.39282	-978.95398	828.07526	1124.32971	-975.72681	690.18414	1376.77051	-974.34607	649.70575	1201.12585	-1049.42566	873.54803	1283.85864	-811.63434	734.79486	1405.57336	-738.88928	721.89996	1203.42297	-725.69269	716.12683	1091.45313	-706.41693	670.49792	947.62292	-755.16211	601.42590	841.95050	-710.94434	655.04895	828.92462	-714.50952	601.63531	755.55939	-1134.44409	739.76624	1410.51904	-1225.45911	778.74316	1214.07031	-1238.93298	769.83167	1092.28076	-1255.90808	744.03998	975.16705	-1223.03687	668.85895	844.66711	-1263.38916	723.36469	839.19275	-1264.30591	677.63965	767.69873	-880.54694	643.37268	965.19891	-1101.63416	657.21600	971.88379	-899.41931	801.97693	994.25787	-1067.84766	808.17224	994.45215	-827.46637	704.48352	650.36279	-852.50543	706.27795	487.04843	-871.78619	738.15021	231.94109	-925.32916	740.56598	63.47821	-969.57013	781.41168	50.80426	-935.86523	593.81641	35.58681	-1162.74548	664.76471	639.42944	-1144.24707	632.52881	517.50854	-1148.98706	776.81702	301.27805	-1114.76550	878.38330	143.09406	-1066.45007	920.68604	130.97441	-1136.35999	759.13739	50.30927	-965.93335	769.10657	1703.05347																											 
88	0.870	-907.58350	662.88910	1664.89722	-1039.99304	663.09381	1658.54492	-909.55603	795.44031	1608.24207	-1038.87000	793.52271	1607.04272	-968.22369	794.80157	1453.71130	-978.23352	823.08795	1124.61792	-975.06744	685.13214	1377.08691	-973.64966	644.71704	1201.46851	-1048.36182	868.61346	1284.02332	-810.98431	729.29517	1406.01172	-737.96918	714.78741	1204.05896	-724.64240	707.98145	1092.22253	-705.91962	660.96906	948.69653	-754.89056	591.64117	843.62909	-710.19788	644.53052	830.18170	-713.99243	590.34283	757.37476	-1133.71436	735.01990	1410.69592	-1224.67798	774.07538	1214.22559	-1238.15918	765.03479	1092.44763	-1255.00964	738.98004	975.39978	-1221.88281	663.52100	845.08136	-1262.40552	717.77887	839.51093	-1263.19177	672.01978	768.13477	-879.70343	638.44513	965.14771	-1100.76526	652.09320	972.34741	-899.01245	797.31250	994.42017	-1067.48145	803.16968	994.96735	-827.54449	701.33899	650.25433	-852.36566	704.18066	486.93796	-871.64905	737.20679	232.03377	-925.37665	740.52277	63.55740	-969.58508	781.47369	51.01684	-935.87909	593.82556	35.44012	-1162.61475	657.93158	640.49695	-1143.74402	625.42212	518.77655	-1148.22729	763.73260	298.14713	-1114.18860	858.79675	135.74338	-1065.11682	899.86322	121.48373	-1138.26721	735.67902	48.77808	-965.45093	763.84070	1703.44336																											 
89	0.880	-907.19733	657.68030	1665.20715	-1039.58765	657.97632	1658.72461	-908.98401	790.27466	1608.69177	-1038.57947	788.72894	1607.37231	-967.43311	789.73651	1454.00427	-977.54889	818.07068	1124.86401	-974.38831	680.16382	1377.41602	-972.96991	639.53271	1201.76831	-1047.40967	863.67706	1284.19214	-810.33453	723.85297	1406.43335	-737.11560	707.74091	1204.69141	-723.75159	699.92804	1092.89087	-704.94086	651.66962	949.83716	-754.19824	581.10321	845.45850	-709.29492	634.41296	831.56409	-713.55353	579.30371	759.15924	-1133.03040	730.31354	1410.85974	-1223.82434	769.47772	1214.36829	-1237.35596	760.26526	1092.58130	-1254.11011	733.98712	975.57867	-1220.87646	658.23273	845.48157	-1261.46240	712.53845	839.71222	-1262.18689	666.65985	768.47546	-878.92731	634.24481	964.94574	-1099.93518	647.35699	972.44995	-898.67682	792.79956	994.61768	-1067.20239	797.96490	995.44336	-827.61078	698.22192	650.08533	-852.22925	702.00378	486.86960	-871.41949	736.45728	232.06996	-925.41577	740.44147	63.57753	-969.20972	782.05353	51.47964	-935.77069	593.54309	35.35492	-1162.52991	651.21881	641.49017	-1143.32922	618.71606	519.96320	-1147.37854	750.58691	295.19495	-1113.45203	838.64801	128.93793	-1063.89221	878.55316	112.39294	-1139.97437	712.26672	47.58071	-964.98584	758.59540	1703.75488																											 
90	0.890	-906.76019	652.54254	1665.47253	-1039.14905	652.87512	1658.88245	-908.42786	785.15338	1609.02478	-1037.74292	783.39539	1607.55823	-966.70270	784.64551	1454.25879	-976.90729	813.11890	1125.09497	-973.78961	675.19110	1377.66699	-972.32458	634.48578	1202.03821	-1046.52234	858.72925	1284.39355	-809.70319	718.43848	1406.85120	-736.31500	700.79083	1205.33984	-722.90759	691.96478	1093.58447	-704.20099	642.44104	950.90082	-753.73297	571.22205	847.17871	-708.87634	623.92615	832.66370	-713.02142	568.42316	760.92267	-1132.37878	725.54834	1411.06860	-1223.02258	764.89105	1214.52869	-1236.55188	755.52631	1092.74768	-1253.24756	729.08185	975.75586	-1220.01147	653.18866	845.79266	-1260.65967	707.72119	840.03735	-1261.23792	661.42877	768.77319	-878.21277	629.89673	964.81824	-1099.28308	642.10132	973.14258	-898.36707	788.22046	994.75671	-1066.93030	793.09528	995.94897	-826.97174	695.68884	649.77899	-852.17389	699.95575	486.84055	-871.23920	735.67389	232.09290	-925.46021	740.34692	63.62146	-969.44574	780.82678	50.86499	-935.68756	593.51807	35.24265	-1162.55823	644.81512	642.72064	-1142.99048	612.01892	521.03949	-1146.79456	737.29846	292.16653	-1112.87646	818.28717	122.58672	-1062.82483	856.91498	103.92265	-1141.43494	688.94086	46.65805	-964.59167	753.50348	1704.08521																											 
91	0.900	-906.41119	647.41583	1665.80103	-1038.81458	647.93323	1659.06799	-907.77112	780.06012	1609.38354	-1037.13965	778.30280	1607.74341	-965.97888	779.62671	1454.49780	-976.31116	808.27832	1125.40845	-973.22675	670.10699	1377.90833	-971.71210	629.54419	1202.32397	-1045.65991	853.84253	1284.62122	-809.13019	713.07446	1407.27808	-735.63525	693.95837	1205.92725	-722.17151	684.23566	1094.28003	-703.59686	633.48743	952.04730	-753.28662	561.42914	848.88086	-708.39099	613.98047	833.86243	-712.55420	557.87476	762.66998	-1131.73083	720.78540	1411.26135	-1222.20105	760.26257	1214.69238	-1235.73816	750.85028	1092.91663	-1252.44128	724.34369	975.96783	-1219.22791	648.25885	846.09906	-1259.70361	702.66718	840.22180	-1260.48572	656.46533	769.05121	-877.65668	625.36328	964.77820	-1098.70825	637.15558	973.59375	-898.16376	783.73816	994.88513	-1066.70801	788.30560	996.39923	-826.74811	693.11603	649.89856	-852.09564	698.00000	486.81287	-871.07172	734.88422	232.16597	-925.52509	740.24390	63.72037	-969.57733	781.21826	51.42391	-935.63568	593.44214	35.12756	-1162.43225	638.91376	643.69684	-1142.81165	605.60077	522.17798	-1145.86523	724.17328	289.47739	-1111.88513	797.78473	116.37281	-1061.55188	835.24463	96.17023	-1142.67883	666.04132	45.74231	-964.15045	748.42188	1704.35010																											 
